<svg xmlns="http://www.w3.org/2000/svg" width="466" height="407" viewBox="0 0 466 407">
  <!-- Body silhouette -->
  <g class="illustration-body">
    <path d="M 193.00,233.50 L 177.00,231.50 L 160.00,232.50 L 158.50,231.00 L 158.50,218.00 L 157.00,216.50 L 148.00,216.50 L 139.00,220.50 L 143.00,216.50 L 123.00,217.50 L 116.00,216.50 L 111.50,213.00 L 112.50,210.00 L 117.00,207.50 L 134.00,205.50 L 136.00,206.50 L 157.00,201.50 L 171.00,201.50 L 171.50,200.00 L 159.50,175.00 L 147.50,160.00 L 140.50,148.00 L 123.50,111.00 L 119.50,93.00 L 114.50,86.00 L 100.50,58.00 L 100.50,55.00 L 103.50,52.00 L 98.50,46.00 L 106.00,52.50 L 108.00,52.50 L 118.00,49.50 L 164.00,45.50 L 186.00,41.50 L 206.00,45.50 L 220.00,44.50 L 245.00,46.50 L 288.00,46.50 L 314.00,51.50 L 322.00,54.50 L 334.50,39.00 L 328.00,34.50 L 318.00,32.50 L 270.00,33.50 L 255.00,29.50 L 240.00,28.50 L 187.00,31.50 L 137.00,30.50 L 105.00,36.50 L 97.50,41.00 L 98.00,45.50 L 95.50,41.00 L 98.00,38.50 L 110.00,33.50 L 141.00,28.50 L 178.00,30.50 L 198.00,28.50 L 251.00,27.50 L 268.00,31.50 L 324.00,31.50 L 334.00,36.50 L 335.50,41.00 L 324.50,54.00 L 327.50,57.00 L 325.50,69.00 L 349.00,74.50 L 360.00,81.50 L 364.50,88.00 L 365.50,93.00 L 363.50,102.00 L 350.00,120.50 L 340.00,128.50 L 319.00,141.50 L 279.00,151.50 L 272.50,159.00 L 267.50,170.00 L 251.50,193.00 L 250.50,199.00 L 260.00,203.50 L 306.00,207.50 L 312.50,213.00 L 314.00,217.50 L 330.00,220.50 L 336.50,224.00 L 309.00,216.50 L 269.00,215.50 L 264.50,217.00 L 263.50,231.00 L 262.00,232.50 L 193.00,233.50 Z" fill="#3B1E1A" stroke="none"/>
    <path d="M 292.50,136.00 L 320.00,127.50 L 342.00,113.50 L 346.50,109.00 L 351.50,100.00 L 350.50,89.00 L 341.00,83.50 L 317.00,80.50 L 299.50,117.00 L 288.50,133.00 L 290.00,135.50 L 292.50,136.00 Z" fill="#3B1E1A" stroke="none"/>
    <path d="M 348.00,235.50 L 336.50,225.00 L 338.00,224.50 L 347.00,232.50 L 348.00,235.50 Z" fill="#3B1E1A" stroke="none"/>
    <path d="M 147.00,238.50 L 144.00,233.50 L 131.00,234.50 L 129.50,233.00 L 130.50,227.00 L 132.50,226.00 L 130.50,230.00 L 132.00,233.50 L 145.00,232.50 L 147.50,235.00 L 147.00,238.50 Z" fill="#3B1E1A" stroke="none"/>
    <path d="M 286.00,233.50 L 284.50,233.00 L 288.00,229.50 L 296.00,226.50 L 315.00,227.50 L 323.00,229.50 L 326.50,232.00 L 307.00,227.50 L 297.00,227.50 L 289.00,230.50 L 286.00,233.50 Z" fill="#3B1E1A" stroke="none"/>
    <path d="M 286.00,254.50 L 281.50,237.00 L 283.00,234.50 L 286.50,251.00 L 286.00,254.50 Z" fill="#3B1E1A" stroke="none"/>
    <path d="M 352.00,299.50 L 349.50,265.00 L 345.00,251.50 L 348.50,257.00 L 351.50,268.00 L 351.50,279.00 L 353.50,287.00 L 352.00,299.50 Z" fill="#3B1E1A" stroke="none"/>
    <path d="M 267.00,392.50 L 165.00,392.50 L 150.00,387.50 L 119.00,370.50 L 112.50,360.00 L 112.50,354.00 L 127.50,296.00 L 132.50,282.00 L 133.50,284.00 L 122.50,320.00 L 124.00,321.50 L 140.00,321.50 L 151.00,323.50 L 237.00,321.50 L 238.00,322.50 L 250.00,320.50 L 268.00,320.50 L 275.00,322.50 L 304.00,321.50 L 292.50,273.00 L 286.50,257.00 L 287.00,254.50 L 294.50,275.00 L 305.50,322.00 L 309.50,331.00 L 311.00,332.50 L 323.00,332.50 L 333.50,329.00 L 325.00,333.50 L 313.00,333.50 L 311.50,335.00 L 318.50,349.00 L 323.50,350.00 L 319.50,352.00 L 314.50,364.00 L 304.00,374.50 L 285.00,387.50 L 267.00,392.50 Z" fill="#3B1E1A" stroke="none"/>
    <path d="M 349.00,331.50 L 349.50,328.00 L 360.50,309.00 L 363.50,299.00 L 363.50,270.00 L 360.50,263.00 L 361.00,260.50 L 365.50,276.00 L 365.50,296.00 L 361.50,310.00 L 349.00,331.50 Z" fill="#3B1E1A" stroke="none"/>
  </g>
  <!-- Drip drops (animated via CSS, visible during pour phase) -->
  <g class="drip-group">
    <ellipse class="drip drip-1" cx="215" cy="240" rx="2" ry="3" fill="#3B1E1A" opacity="0"/>
    <ellipse class="drip drip-2" cx="220" cy="242" rx="1.5" ry="2.5" fill="#3B1E1A" opacity="0"/>
    <ellipse class="drip drip-3" cx="210" cy="238" rx="1.8" ry="2.8" fill="#3B1E1A" opacity="0"/>
  </g>
  <!-- Text "Slow" & "& steady" - shifted left 8px to center on silhouette -->
  <g transform="translate(-8, 0)">
    <path d="m 217.34001,125.18 c 3.69,0 6.99,-2.43 6.99,-5.79 0,-2.79 -2.13,-4.71 -6.45,-5.91 -3.21,-0.9 -4.83,-2.01 -4.83,-3.78 0,-2.04 1.74,-3.27 4.89,-3.27 2.64,0 4.35,1.08 4.53,2.58 0.03,0.42 0.42,0.81 0.9,0.81 0.51,0 0.93,-0.42 0.93,-0.96 0,-2.46 -2.25,-4.14 -6.27,-4.14 -4.32,0 -6.9,2.16 -6.9,5.07 0,3.24 3.3,4.77 6.27,5.58 3.81,1.05 5.01,2.43 5.01,4.17 0,2.16 -2.07,3.84 -5.07,3.84 -2.49,0 -4.68,-1.32 -5.34,-3.18 -0.15,-0.48 -0.48,-0.78 -0.99,-0.78 -0.57,0 -1.02,0.45 -1.02,0.99 0,0.18 0.09,0.45 0.18,0.6 0.96,2.4 3.51,4.17 7.17,4.17 z" fill="#F5F3EE" stroke="none"/>
    <path d="m 229.01001,125.18 c 0.45,0 0.93,-0.39 0.93,-0.84 v -18.87 c 0,-0.51 -0.45,-0.9 -0.93,-0.9 -0.54,0 -0.96,0.39 -0.96,0.9 v 18.87 c 0,0.45 0.48,0.84 0.96,0.84 z" fill="#F5F3EE" stroke="none"/>
    <path d="m 239.75001,125.18 c 3.78,0 6.99,-3.69 6.99,-8.1 0,-3.84 -2.64,-6.87 -6.06,-6.87 -4.05,0 -7.02,4.02 -7.02,8.07 0,3.87 2.64,6.9 6.09,6.9 z m 0.12,-1.71 c -2.22,0 -4.26,-2.04 -4.26,-5.25 0,-3.27 2.22,-6.3 4.92,-6.3 2.43,0 4.29,2.49 4.29,5.31 0,3.33 -2.34,6.24 -4.95,6.24 z" fill="#F5F3EE" stroke="none"/>
    <path d="m 252.11,125.18 c 0.36,0 0.72,-0.3 0.87,-0.69 l 3.84,-10.59 2.67,10.53 c 0.12,0.48 0.51,0.75 0.9,0.75 0.48,0 0.78,-0.3 0.93,-0.72 l 4.14,-13.02 c 0.03,-0.09 0.09,-0.18 0.09,-0.3 0,-0.51 -0.45,-0.93 -0.96,-0.93 -0.39,0 -0.78,0.3 -0.9,0.72 l -3.21,10.77 -2.58,-10.71 c -0.09,-0.42 -0.51,-0.81 -0.96,-0.81 -0.45,0 -0.84,0.33 -0.96,0.69 l -3.69,10.68 -2.1,-10.56 c -0.09,-0.48 -0.42,-0.81 -0.93,-0.81 -0.51,0 -0.9,0.42 -0.9,0.9 0,0.12 0.03,0.3 0.06,0.48 l 2.7,12.81 c 0.12,0.45 0.48,0.81 0.99,0.81 z" fill="#F5F3EE" stroke="none"/>
    <path d="m 188.645,155.3 c 0.99,0 3.69,-0.36 5.85,-3.3 l 2.4,2.85 c 0.15,0.21 0.45,0.33 0.69,0.33 0.51,0 0.9,-0.42 0.9,-0.9 0,-0.24 -0.09,-0.45 -0.18,-0.57 l -2.79,-3.36 c 0.42,-0.78 1.23,-2.88 1.23,-3.51 0,-0.51 -0.36,-0.87 -0.87,-0.87 -0.57,0 -0.75,0.27 -0.99,1.02 -0.21,0.66 -0.42,1.32 -0.66,1.83 l -4.05,-4.83 c 2.61,-1.41 3.84,-2.79 3.84,-5.19 0,-2.16 -2.16,-4.23 -4.47,-4.23 -2.31,0 -4.44,2.04 -4.44,4.29 0,1.86 1.29,3.63 2.16,4.65 -2.4,1.29 -4.74,2.79 -4.74,6.21 0,3.42 3.18,5.58 6.12,5.58 z m 0.27,-12.69 c -0.78,-0.84 -2.01,-2.4 -2.01,-3.75 0,-1.41 1.44,-2.46 2.64,-2.46 1.38,0 2.67,1.23 2.67,2.46 0,0.99 -0.03,2.1 -3.3,3.75 z m -0.27,10.86 c -1.74,0 -4.29,-1.17 -4.29,-3.75 0,-2.52 1.86,-3.6 4.2,-4.86 l 4.74,5.7 c -1.74,2.61 -3.87,2.91 -4.65,2.91 z" fill="#F5F3EE" stroke="none"/>
    <path d="m 218.31496,155.18 c 3.69,0 6.99,-2.43 6.99,-5.79 0,-2.79 -2.13,-4.71 -6.45,-5.91 -3.21,-0.9 -4.83,-2.01 -4.83,-3.78 0,-2.04 1.74,-3.27 4.89,-3.27 2.64,0 4.35,1.08 4.53,2.58 0.03,0.42 0.42,0.81 0.9,0.81 0.51,0 0.93,-0.42 0.93,-0.96 0,-2.46 -2.25,-4.14 -6.27,-4.14 -4.32,0 -6.9,2.16 -6.9,5.07 0,3.24 3.3,4.77 6.27,5.58 3.81,1.05 5.01,2.43 5.01,4.17 0,2.16 -2.07,3.84 -5.07,3.84 -2.49,0 -4.68,-1.32 -5.34,-3.18 -0.15,-0.48 -0.48,-0.78 -0.99,-0.78 -0.57,0 -1.02,0.45 -1.02,0.99 0,0.18 0.09,0.45 0.18,0.6 0.96,2.4 3.51,4.17 7.17,4.17 z" fill="#F5F3EE" stroke="none"/>
    <path d="m 230.73496,155.21 c 0.48,0 0.93,-0.42 0.93,-0.9 v -12.24 h 3.36 c 0.54,0 0.96,-0.45 0.96,-0.96 0,-0.54 -0.42,-0.93 -0.96,-0.93 h -3.36 v -4.11 c 0,-0.51 -0.36,-0.96 -0.93,-0.96 -0.54,0 -0.96,0.45 -0.96,0.96 v 4.11 h -3.24 c -0.54,0 -1.02,0.36 -1.02,0.93 0,0.51 0.42,0.96 0.96,0.96 h 3.3 v 12.24 c 0,0.48 0.45,0.9 0.96,0.9 z" fill="#F5F3EE" stroke="none"/>
    <path d="m 243.24496,155.18 c 1.83,0 3.9,-0.96 4.95,-2.16 0.12,-0.15 0.24,-0.39 0.24,-0.6 0,-0.51 -0.39,-0.9 -0.9,-0.9 -0.24,0 -0.48,0.12 -0.6,0.3 -0.81,0.87 -2.4,1.62 -3.72,1.62 -2.31,0 -4.05,-0.99 -5.07,-2.91 l 9.3,-5.31 c 0.51,-0.3 0.72,-0.63 0.72,-0.96 0,-1.32 -1.77,-4.05 -5.64,-4.05 -4.08,0 -6.75,3.69 -6.75,7.77 0,3.87 2.94,7.2 7.47,7.2 z m -5.67,-6.33 c -0.06,-0.36 -0.06,-0.63 -0.06,-0.96 0.06,-3.27 2.1,-5.91 5.04,-5.91 2.07,0 3.21,0.72 3.75,2.04 z" fill="#F5F3EE" stroke="none"/>
    <path d="m 261.63494,155.42 c 0.54,0 0.93,-0.45 0.93,-0.99 v -12.99 c -0.51,-0.24 -2.37,-1.23 -4.56,-1.23 -4.65,0 -7.2,4.56 -7.2,8.49 0,3.87 2.43,6.48 5.67,6.48 1.59,0 3.18,-0.69 4.23,-1.59 v 0.84 c 0,0.54 0.3,0.99 0.93,0.99 z m -5.16,-2.01 c -2.19,0 -3.75,-1.83 -3.75,-4.77 0,-3.84 2.34,-6.66 5.34,-6.66 0.96,0 2.13,0.36 2.67,0.6 l -0.12,9.09 c -0.69,0.69 -2.4,1.74 -4.14,1.74 z" fill="#F5F3EE" stroke="none"/>
    <path d="m 271.50496,155.18 c 2.25,0 3.9,-1.26 4.95,-2.28 l -0.03,1.23 c -0.03,0.54 0.36,1.05 0.93,1.05 0.51,0 0.96,-0.39 0.96,-0.9 l 0.45,-18.93 c 0,-0.54 -0.45,-0.99 -0.93,-0.99 -0.51,0 -0.99,0.42 -0.99,0.96 l -0.15,5.97 c -0.96,-0.51 -2.37,-1.05 -3.99,-1.05 -3.99,0 -6.42,3 -6.42,8.16 0,4.26 2.28,6.78 5.22,6.78 z m 0.03,-1.77 c -2.04,0 -3.39,-1.86 -3.39,-5.1 0,-3.9 1.53,-6.27 4.65,-6.27 1.65,0 3.3,0.78 3.87,1.11 l -0.15,6.93 c -0.03,1.11 -2.01,3.33 -4.98,3.33 z" fill="#F5F3EE" stroke="none"/>
    <path d="m 284.55499,161 c 0.42,0 0.72,-0.27 0.9,-0.6 l 8.67,-18.9 c 0.09,-0.15 0.09,-0.24 0.09,-0.42 0,-0.54 -0.42,-0.93 -0.93,-0.93 -0.45,0 -0.75,0.3 -0.9,0.6 l -4.71,10.29 -5.1,-10.23 c -0.15,-0.33 -0.48,-0.63 -0.9,-0.63 -0.54,0 -0.96,0.42 -0.96,0.96 0,0.18 0.06,0.36 0.12,0.51 l 5.82,11.61 -2.91,6.36 c -0.09,0.15 -0.12,0.3 -0.12,0.42 0,0.51 0.42,0.96 0.93,0.96 z" fill="#F5F3EE" stroke="none"/>
  </g>
</svg>
